<?xml version="1.0" encoding="UTF-8"?>
<svg width="36px" height="36px" viewBox="0 0 36 36" version="1.1" xmlns="http://www.w3.org/2000/svg" xmlns:xlink="http://www.w3.org/1999/xlink">
    <!-- Generator: Sketch 62 (91390) - https://sketch.com -->
    <title>Facebook</title>
    <desc>Created with Sketch.</desc>
    <g id="Symbols" stroke="none" stroke-width="1" fill="none" fill-rule="evenodd">
        <g id="Home/Footer/ENG" transform="translate(-925.000000, -339.000000)" fill="#FFFFFF">
            <g id="Footer" transform="translate(0.000000, 53.000000)">
                <g id="Links" transform="translate(165.000000, 111.000000)">
                    <g id="Apps/SocialMedia" transform="translate(760.000000, 0.000000)">
                        <g id="Social-Media" transform="translate(0.000000, 139.000000)">
                            <g id="Facebook" transform="translate(0.000000, 36.000000)">
                                <path d="M18,-1.0658141e-14 C27.9411255,-1.0658141e-14 36,8.0588745 36,18 C36,27.9411255 27.9411255,36 18,36 C8.0588745,36 0,27.9411255 0,18 C0,8.0588745 8.0588745,-1.0658141e-14 18,-1.0658141e-14 Z M20.9217187,8.4 C18.1525781,8.4 16.2560156,10.089375 16.2560156,13.1932031 L16.2560156,13.1932031 L16.2560156,16.05 L13.2,16.05 L13.2,19.6757812 L16.2560156,19.6757812 L16.2560156,28.8 L20.0013281,28.8 L20.0013281,19.6757812 L22.9338281,19.6757812 L23.4,16.05 L20.0013281,16.05 L20.0013281,13.5517969 C20.0013281,12.5039062 20.2921875,11.7867187 21.7982812,11.7867187 L21.7982812,11.7867187 L23.71875,11.7867187 L23.71875,8.5434375 C23.3880469,8.49960937 22.2485156,8.4 20.9217187,8.4 Z" id="Combined-Shape"></path>
                            </g>
                        </g>
                    </g>
                </g>
            </g>
        </g>
    </g>
</svg>