<?xml version="1.0" encoding="UTF-8"?>
<svg width="36px" height="36px" viewBox="0 0 36 36" version="1.1" xmlns="http://www.w3.org/2000/svg" xmlns:xlink="http://www.w3.org/1999/xlink">
    <!-- Generator: Sketch 62 (91390) - https://sketch.com -->
    <title>Instagram</title>
    <desc>Created with Sketch.</desc>
    <g id="Symbols" stroke="none" stroke-width="1" fill="none" fill-rule="evenodd">
        <g id="Home/Footer/ENG" transform="translate(-1071.000000, -339.000000)" fill="#FFFFFF">
            <g id="Footer" transform="translate(0.000000, 53.000000)">
                <g id="Links" transform="translate(165.000000, 111.000000)">
                    <g id="Apps/SocialMedia" transform="translate(760.000000, 0.000000)">
                        <g id="Social-Media" transform="translate(0.000000, 139.000000)">
                            <g id="Instagram" transform="translate(146.000000, 36.000000)">
                                <path d="M18,-1.0658141e-14 C27.9411255,-1.0658141e-14 36,8.0588745 36,18 C36,27.9411255 27.9411255,36 18,36 C8.0588745,36 3.55271368e-15,27.9411255 3.55271368e-15,18 C3.55271368e-15,8.0588745 8.0588745,-1.0658141e-14 18,-1.0658141e-14 Z M22.4806047,8 L13.5191587,8 L13.3027734,8.00418515 C10.3594002,8.11822703 8,10.5484733 8,13.519277 L8,13.519277 L8,22.480723 L8.00418495,22.6971165 C8.11822147,25.6405998 10.548355,28 13.5191587,28 L13.5191587,28 L22.4806047,28 L22.6970065,27.9958149 C25.6405998,27.881773 28,25.4515267 28,22.480723 L28,22.480723 L28,13.519277 L27.995815,13.3028915 C27.8817784,10.3595129 25.4516393,8 22.4806047,8 L22.4806047,8 Z M22.4806047,9.77449693 C24.5455277,9.77449693 26.2256214,11.4544723 26.2256214,13.519277 L26.2256214,13.519277 L26.2256214,22.480723 L26.2204204,22.6793088 C26.1168353,24.6522758 24.4790356,26.2255031 22.480723,26.2255031 L22.480723,26.2255031 L13.5191587,26.2255031 L13.320584,26.2203024 C11.3477242,26.1167245 9.77449693,24.4790356 9.77449693,22.480723 L9.77449693,22.480723 L9.77449693,13.519277 L9.77969755,13.320702 C9.88327538,11.347835 11.5209606,9.77449693 13.5191587,9.77449693 L13.5191587,9.77449693 Z M18,13 C15.2429585,13 13,15.24301 13,18.0001148 C13,20.7571048 15.2429585,23 18,23 C20.7570415,23 23,20.7571048 23,18.0001148 C23,15.24301 20.7570415,13 18,13 Z M18,14.7215693 C19.8077267,14.7215693 21.2783555,16.1922318 21.2783555,18 C21.2783555,19.8076535 19.807612,21.2782012 18,21.2782012 C16.192388,21.2782012 14.7216445,19.8076535 14.7216445,18 C14.7216445,16.1922318 16.1922733,14.7215693 18,14.7215693 Z M23.5,12 C23.1059091,12 22.7187727,12.1595455 22.4404545,12.4390909 C22.1607727,12.7172727 22,13.1045455 22,13.5 C22,13.8942273 22.1609091,14.2813636 22.4404545,14.5609091 C22.7186364,14.8390909 23.1059091,15 23.5,15 C23.8954545,15 24.2813636,14.8390909 24.5609091,14.5609091 C24.8404545,14.2813636 25,13.8940909 25,13.5 C25,13.1045455 24.8404545,12.7172727 24.5609091,12.4390909 C24.2827273,12.1595455 23.8954545,12 23.5,12 Z" id="Combined-Shape"></path>
                            </g>
                        </g>
                    </g>
                </g>
            </g>
        </g>
    </g>
</svg>