<?xml version="1.0" encoding="UTF-8"?>
<svg width="36px" height="36px" viewBox="0 0 36 36" version="1.1" xmlns="http://www.w3.org/2000/svg" xmlns:xlink="http://www.w3.org/1999/xlink">
    <!-- Generator: Sketch 62 (91390) - https://sketch.com -->
    <title>Linkedin</title>
    <desc>Created with Sketch.</desc>
    <g id="Symbols" stroke="none" stroke-width="1" fill="none" fill-rule="evenodd">
        <g id="Home/Footer/ENG" transform="translate(-1144.000000, -339.000000)" fill="#FFFFFF">
            <g id="Footer" transform="translate(0.000000, 53.000000)">
                <g id="Links" transform="translate(165.000000, 111.000000)">
                    <g id="Apps/SocialMedia" transform="translate(760.000000, 0.000000)">
                        <g id="Social-Media" transform="translate(0.000000, 139.000000)">
                            <g id="Linkedin" transform="translate(219.000000, 36.000000)">
                                <path d="M18,-1.0658141e-14 C27.9411255,-1.0658141e-14 36,8.0588745 36,18 C36,27.9411255 27.9411255,36 18,36 C8.0588745,36 -1.0658141e-14,27.9411255 -1.0658141e-14,18 C-1.0658141e-14,8.0588745 8.0588745,-1.0658141e-14 18,-1.0658141e-14 Z M13.6,14.4 L9.6,14.4 L9.6,26.4 L13.6,26.4 L13.6,14.4 Z M23.244337,14.4 C21.4754604,14.4 20.2896869,15.3706458 19.8044199,16.290411 L19.8044199,16.290411 L19.7535451,16.290411 L19.7535451,14.6935421 L16.2666667,14.6935421 L16.2666667,26.4 L19.8983425,26.4 L19.8983425,20.6035225 C19.8983425,19.0771037 20.1879374,17.6015656 22.0781308,17.6015656 C23.94093,17.6015656 23.9683241,19.3432485 23.9683241,20.7013699 L23.9683241,26.4 L27.6,26.4 L27.6,19.9694716 C27.6,16.8227006 26.9229742,14.4 23.244337,14.4 Z M11.6,8.4 C10.4959108,8.4 9.6,9.4403947 9.6,10.7225409 C9.6,12.004687 10.4959108,13.0666667 11.6,13.0666667 C12.7040892,13.0666667 13.6,12.004687 13.6,10.7225409 C13.6,9.4403947 12.7040892,8.4 11.6,8.4 Z" id="Combined-Shape"></path>
                            </g>
                        </g>
                    </g>
                </g>
            </g>
        </g>
    </g>
</svg>