<?xml version="1.0" encoding="UTF-8"?>
<svg width="240px" height="240px" viewBox="0 0 240 240" version="1.1" xmlns="http://www.w3.org/2000/svg" xmlns:xlink="http://www.w3.org/1999/xlink">
    <title>Group</title>
    <g id="Page-1" stroke="none" stroke-width="1" fill="none" fill-rule="evenodd">
        <g id="Group">
            <circle id="Oval" fill="#FFFFFF" cx="120" cy="120" r="120"></circle>
            <path d="M186.305756,105.550219 C185.052103,105.666195 183.781883,105.743513 182.495095,105.743513 C168.009062,105.743513 155.279247,98.2933956 147.873311,87.0326174 C147.873311,116.573521 147.873311,150.184652 147.873311,150.747967 C147.873311,176.754345 126.787655,197.84 100.781278,197.84 C74.7748997,197.84 53.6892445,176.754345 53.6892445,150.747967 C53.6892445,124.741589 74.7748997,103.655934 100.781278,103.655934 C101.764318,103.655934 102.725267,103.744297 103.691739,103.805047 L103.691739,127.011417 C102.725267,126.895441 101.775363,126.718714 100.781278,126.718714 C87.5047151,126.718714 76.7465024,137.476927 76.7465024,150.75349 C76.7465024,164.030052 87.5047151,174.788265 100.781278,174.788265 C114.05784,174.788265 125.782525,164.328278 125.782525,151.051715 C125.782525,150.527059 126.014478,42.84 126.014478,42.84 L148.193627,42.84 C150.281206,62.6720031 166.291503,78.323325 186.305756,79.7592261 L186.305756,105.550219 Z" id="Path" fill="#000000" fill-rule="nonzero"></path>
        </g>
    </g>
</svg>