<?xml version="1.0" encoding="UTF-8"?>
<svg width="36px" height="36px" viewBox="0 0 36 36" version="1.1" xmlns="http://www.w3.org/2000/svg" xmlns:xlink="http://www.w3.org/1999/xlink">
    <title>Whatsapp</title>
    <g id="Page-1" stroke="none" stroke-width="1" fill="none" fill-rule="evenodd">
        <g id="Whatsapp" fill="#FFFFFF" fill-rule="nonzero">
            <path d="M18,0 C8.0603943,0 0,8.0603943 0,18 C0,27.9396057 8.0603943,36 18,36 C27.9396057,36 36,27.9396057 36,18 C36,8.0603943 27.9396057,0 18,0 Z M18.3815002,28.480133 C18.3812256,28.480133 18.3817749,28.480133 18.3815002,28.480133 L18.3771057,28.480133 C16.5739746,28.479309 14.8021545,28.0272217 13.2286377,27.1691895 L7.5176697,28.6669006 L9.04614258,23.0858459 C8.10324098,21.4527283 7.60720823,19.599884 7.60803223,17.7017212 C7.61050413,11.7636109 12.4433899,6.93264769 18.3815002,6.93264769 C21.2632141,6.93374632 23.9683227,8.05545042 26.0021668,10.0909424 C28.0362854,12.126709 29.1557922,14.8326416 29.1546944,17.7102356 C29.1522217,23.6486206 24.3187867,28.480133 18.3815002,28.480133 Z" id="Shape"></path>
            <path d="M18.3850708,8.75170898 C13.4458924,8.75170898 9.42901608,12.7669373 9.42681834,17.7025451 C9.42626953,19.3938904 9.89978027,21.0410156 10.79599,22.466217 L11.0088501,22.8048706 L10.104126,26.1081848 L13.4931336,25.2193909 L13.8202515,25.4132996 C15.1949158,26.2290344 16.7709045,26.6605225 18.377655,26.6610718 L18.3812256,26.6610718 C23.3165588,26.6610718 27.3334351,22.6455688 27.3356329,17.7096863 C27.3364563,15.317688 26.4059143,13.0687867 24.715393,11.3768921 C23.0248718,9.68499759 20.7765198,8.75253298 18.3850708,8.75170898 L18.3850708,8.75170898 Z M23.6519165,21.5510559 C23.4275207,22.1794739 22.3522339,22.7532348 21.8350525,22.8306885 C21.3711547,22.8999023 20.7844848,22.9287414 20.1395874,22.7241211 C19.7484742,22.5999756 19.2472229,22.4343567 18.6047973,22.1572266 C15.9046326,20.9915771 14.1410523,18.2735596 14.0064697,18.0939331 C13.8718872,17.9143066 12.9072876,16.6346741 12.9072876,15.3099976 C12.9072876,13.9855957 13.6027222,13.3343811 13.8493652,13.065216 C14.096283,12.7957764 14.38797,12.7284851 14.5673218,12.7284851 C14.7466736,12.7284851 14.9263,12.730133 15.0831299,12.7378235 C15.2484742,12.7460632 15.470398,12.6749268 15.6887512,13.1997986 C15.9131469,13.738678 16.451477,15.0630799 16.5187683,15.1976623 C16.5860596,15.3325195 16.6308289,15.489624 16.5412903,15.6692505 C16.451477,15.848877 16.1531982,16.2364197 15.8683777,16.5896301 C15.7489014,16.7376709 15.5931701,16.8695068 15.7502746,17.1389465 C15.9071045,17.4081116 16.4476318,18.2894898 17.2477112,19.0030518 C18.2760315,19.9198609 19.1434021,20.2038574 19.4125672,20.3387146 C19.6814575,20.4732971 19.838562,20.4507752 19.9956665,20.2714234 C20.1524963,20.0917969 20.6685791,19.4856262 20.8479309,19.2161865 C21.0272828,18.9467468 21.2069092,18.9917908 21.4535523,19.081604 C21.70047,19.1711426 23.0237732,19.8223572 23.2929383,19.9569397 C23.5621033,20.0917969 23.7414551,20.1590881 23.8087463,20.2714234 C23.8763123,20.3837586 23.8763123,20.9223633 23.6519165,21.5510559 L23.6519165,21.5510559 Z" id="Shape"></path>
        </g>
    </g>
</svg>