<?xml version="1.0" encoding="UTF-8"?>
<svg width="36px" height="36px" viewBox="0 0 36 36" version="1.1" xmlns="http://www.w3.org/2000/svg" xmlns:xlink="http://www.w3.org/1999/xlink">
    <title>x twitter</title>
    <g id="NGS_AffinityFullIntegration_Responsive_Confirmation-Plus-v.club-pays-card-logged-in" stroke="none" stroke-width="1" fill="none" fill-rule="evenodd">
        <g id="x-twitter" fill="#FFFFFF">
            <path d="M18,0 C27.9411255,0 36,8.0588745 36,18 C36,27.9411255 27.9411255,36 18,36 C8.0588745,36 0,27.9411255 0,18 C0,8.0588745 8.0588745,0 18,0 Z M15.296802,9 L9.56208879,9 L16.2253061,18.4670748 L9.5,26.3396052 L11.3062089,26.3396052 L17.0409221,19.625588 L21.7652868,26.3396052 L27.5,26.3396052 L20.184854,15.9454374 L26.1171217,9 L24.3109128,9 L19.369238,14.7869242 L15.296802,9 Z M14.7646851,10 L25.585938,25.3412196 L23.2353149,25.3412196 L12.414062,10 L14.7646851,10 Z" id="Combined-Shape"></path>
        </g>
    </g>
</svg>